<svg version="1" xmlns="http://www.w3.org/2000/svg" width="1422.667" height="1422.667" viewBox="0 0 1067.000000 1067.000000"><path d="M516.2 284.1c-7.4 2.2-28.7 14.7-35.2 20.6-15.8 14.3-32.2 35-33.3 42-.1 1.2-1.5 3.9-3 6.2-1.5 2.2-2.7 5.3-2.7 6.8s-1.1 3.8-2.6 5.4c-1.8 1.9-2.6 4-2.9 7.5-1.2 12.8-1.6 15.8-2.5 16.9-1.6 1.9-2.7 8.9-1.9 11.8.4 1.5 1 4.7 1.3 7 .3 2.3 1 5.7 1.5 7.4.5 1.8.8 3.3.6 3.3-.2 0 .3 1.6 1.1 3.5s1.2 3.5 1 3.5c-.3 0 .4 2.6 1.5 5.7 1.1 3.2 2 5.8 2 5.8s-.6 1.6-1.4 3.5c-1.4 3.4-1 15.3.7 22 .4 1.4.9 4.5 1.2 7 1.4 11.9 4.9 21 8.1 21 .8 0 1.1 1.3.9 3.7-.1 2 .5 6 1.4 8.8 1 2.7 2.5 7.7 3.5 10.9.9 3.3 4.3 12.2 7.6 19.7 6.8 16.2 7.1 17.2 4.4 17.7-1.1.3-3.6 1.7-5.5 3.2-9.4 7.4-23.6 13.7-32.7 14.6-13.8 1.4-25.1 5.1-38 12.8-9 5.3-12 6.5-17.8 7.2-1.6.2-6.6 2.1-11 4.3-4.4 2.1-9.6 4.3-11.5 4.9-1.9.6-7.3 2.3-12 3.7-4.7 1.4-9.4 3-10.5 3.5-1.1.5-4.7 2.1-8 3.5-11.4 5-18 8.6-21.1 11.3-4.9 4.3-27.6 35.5-34.2 47.1-2.6 4.5-5.5 9.6-8 14.1-1.3 2.5-2.8 4.9-3.2 5.5-.4.5-2 3.2-3.5 6-9.6 17.4-14.4 26.4-22.3 42.2-8.7 17.4-10.4 20.6-19.3 36.8l-4.4 8-.1 26.3-.1 26.2h326.3c179.5 0 326.4-.4 326.4-.8s-1.6-4.8-3.6-9.8c-4.4-10.8-5.6-14-17.7-46.9-22.6-61.7-32.6-83.7-52.1-114.5-3.3-5.2-7.3-12.1-8.8-15.3-2.2-4.5-3.8-6.4-7.4-8.5-5.4-3.1-16.8-10.6-23.4-15.3-5.3-3.8-16.7-9.4-27-13.3-4.1-1.5-10.2-3.9-13.5-5.1-3.3-1.3-10.5-3.8-16-5.5-5.5-1.8-15.8-6.1-23-9.6-7.1-3.5-15.9-7-19.5-7.9-3.6-.9-8.4-2.1-10.7-2.6-4.6-1.2-11.8-6.8-12.8-9.9-.3-1-2.9-3.6-5.8-5.7-2.9-2-5.4-4.1-5.7-4.4-.3-.4-1.8-1.1-3.3-1.4-1.5-.4-2.7-1.3-2.7-2s2-6.4 4.5-12.6c2.5-6.2 4.6-12.9 4.7-14.8.1-3.9 3.3-14.2 9.8-32.1 3.7-10.3 4.2-12.5 4.3-21.2.1-5.4.5-9.8.8-9.8.6 0 1.4-3.4 3.9-15.6.5-2.3 1.1-7.5 1.5-11.5.8-10.6 1.5-15 3.2-18.2.8-1.5 1.2-3.6.9-4.5-.4-1 0-4.2.8-7.2 1.6-6.1 2-4.2-5-26.5-2-6.6-4.5-12.9-5.5-14-1.1-1.3-1.6-2.9-1.2-4.6.4-2-.1-2.7-2.1-3.7-2.1-.9-2.5-1.7-2.1-3.5.8-3.1-1.1-7.8-3.4-8.4-1.1-.3-2.2-1.5-2.5-2.8-.3-1.3-3-5-5.9-8.2-3-3.2-7-8.3-8.9-11.4-2-3-6.6-8.2-10.3-11.5-3.7-3.2-8.4-7.5-10.4-9.4-5.5-5.4-9.3-7.8-13.6-8.6-2.5-.4-5.2-2-7.7-4.5-2.5-2.4-5.2-4.1-7.6-4.5-2-.4-4.6-.9-5.7-1.1-4.2-1-27.2-1.2-30.3-.2z"/></svg>